<svg xmlns="http://www.w3.org/2000/svg" width="38" height="38" viewBox="0 0 38 38" fill="none">
  <g style="mix-blend-mode:luminosity">
    <path
      d="M22.4068 21.5117C22.3114 21.3265 22.3282 21.1019 22.4518 20.9279C22.637 20.6696 22.7325 20.3665 22.7325 20.0409C22.7325 19.6198 22.564 19.2324 22.2609 18.9405C21.9577 18.6486 21.5647 18.5082 21.1381 18.5138C20.7451 18.5307 20.3577 18.7216 20.077 19.0416C19.7907 19.3672 19.6447 19.777 19.6784 20.1756C19.7009 20.4507 19.7963 20.6977 19.9535 20.9223C20.077 21.0907 20.0939 21.3209 19.9984 21.5061C19.903 21.6914 19.7121 21.8093 19.4988 21.8093H14.8672V25.5763C15.0749 25.5258 15.2939 25.4977 15.5184 25.4977C16.2482 25.4977 16.9275 25.784 17.4272 26.3117C17.9268 26.8394 18.1907 27.53 18.1626 28.2542C18.1458 28.6135 18.0503 28.9616 17.8932 29.2872C17.736 29.6072 17.517 29.9047 17.2363 30.1517C16.6861 30.6345 15.9732 30.8816 15.277 30.8198C15.1367 30.8086 15.0019 30.7861 14.8672 30.7524V34.4858H25.8932C26.8026 34.4858 27.5381 33.7447 27.5381 32.8409V21.8149H22.9065C22.6988 21.8149 22.5023 21.697 22.4068 21.5117Z"
      fill="white"
    />
    <path
      d="M13.7451 29.8538C13.7451 29.6404 13.863 29.4496 14.0483 29.3541C14.2335 29.2587 14.4581 29.2755 14.6321 29.399C14.8567 29.5618 15.1093 29.6517 15.3788 29.6741C15.7718 29.7078 16.1872 29.5618 16.5128 29.2811C16.67 29.1464 16.7879 28.9836 16.8777 28.8096C16.962 28.6355 17.0125 28.4503 17.0181 28.2594C17.0349 27.8439 16.8834 27.4453 16.597 27.1478C16.0862 26.6201 15.2216 26.5415 14.6265 26.9625C14.4581 27.0861 14.2279 27.1029 14.0427 27.0075C13.8574 26.912 13.7395 26.7211 13.7395 26.5078V26.4573C13.7395 26.4573 13.7395 26.4573 13.7395 26.4517V21.9043H10.0623C10.096 22.039 10.1184 22.1794 10.1297 22.3197C10.1914 23.0215 9.94441 23.7401 9.45599 24.2903C8.97319 24.8404 8.29389 25.1717 7.59775 25.1997C7.55845 25.1997 7.52476 25.1997 7.49108 25.1997C6.80055 25.1997 6.15494 24.9415 5.65529 24.4587C5.60476 24.4082 5.56547 24.3464 5.51494 24.2959C5.50933 24.2846 5.4981 24.279 5.48687 24.2734C5.47564 24.2622 5.47003 24.2453 5.4588 24.2341C5.37459 24.1331 5.29599 24.0264 5.22862 23.9141C5.18371 23.8411 5.14441 23.7682 5.10512 23.6952C5.07705 23.639 5.04897 23.5829 5.02652 23.5268C4.86371 23.1394 4.7795 22.7296 4.8188 22.3141C4.83003 22.1738 4.85248 22.039 4.88617 21.9043H1.16406V32.8517C1.16406 33.7499 1.89389 34.4853 2.79775 34.4853H13.7451V29.8538Z"
      fill="white"
    />
    <path
      d="M5.76757 20.782H5.80126C6.01459 20.782 6.20547 20.8999 6.3009 21.0851C6.39634 21.2704 6.3795 21.4949 6.25599 21.669C6.07073 21.9272 5.97529 22.2304 5.97529 22.556C5.97529 22.7581 6.01459 22.9546 6.09319 23.1399C6.0988 23.1567 6.10441 23.1679 6.11564 23.1848C6.1381 23.2353 6.16617 23.2802 6.19424 23.3307C6.23915 23.4037 6.28406 23.4711 6.34582 23.5385C6.62652 23.8585 7.00827 24.0493 7.40126 24.0662C7.82231 24.0718 8.21529 23.9314 8.51283 23.6451C8.81599 23.3588 8.9788 22.9658 8.9788 22.5504C8.9788 22.2304 8.88336 21.9272 8.6981 21.6746C8.57459 21.5062 8.55775 21.276 8.65319 21.0907C8.74862 20.9055 8.9395 20.7876 9.15283 20.7876H13.8406V17.0206C13.7058 17.0542 13.5655 17.0767 13.4251 17.0879C12.7234 17.1497 12.0048 16.9027 11.4546 16.4142C10.9044 15.9314 10.5732 15.2521 10.5451 14.5504C10.517 13.8206 10.7809 13.13 11.2806 12.6079C11.7858 12.0802 12.4651 11.7939 13.1893 11.7939C13.4083 11.7939 13.6272 11.822 13.8406 11.8725V8.10547H2.80897C1.8995 8.10547 1.16406 8.84652 1.16406 9.75038V20.7763H5.76757V20.782Z"
      fill="white"
    />
    <path
      d="M27.1793 2.56445L24.0692 6.00024C23.9288 6.15744 23.7155 6.21919 23.5078 6.16305C23.3057 6.10691 23.1485 5.9441 23.1035 5.742C23.0362 5.43322 22.8734 5.15252 22.6376 4.93919C22.3288 4.65849 21.9246 4.51252 21.5092 4.54621C21.0881 4.57428 20.712 4.77077 20.4425 5.09077C20.1899 5.39393 20.072 5.80937 20.1225 6.23603C20.173 6.6627 20.3807 7.05007 20.6951 7.29147C20.9141 7.45989 21.1611 7.55533 21.4362 7.58902C21.6439 7.61147 21.8235 7.75182 21.8965 7.94831C21.9695 8.1448 21.9302 8.36937 21.7899 8.52094L18.6797 11.9567L21.4699 14.483C21.5709 14.2922 21.7 14.1125 21.846 13.9497C22.3344 13.4108 23.0025 13.102 23.7323 13.0795C24.4734 13.0515 25.1471 13.3266 25.6692 13.8374C26.1688 14.3259 26.4495 15.0276 26.4383 15.7631C26.4271 16.4985 26.1295 17.1946 25.613 17.6774C25.512 17.7729 25.3997 17.8627 25.2818 17.9413L28.072 20.4676L35.4713 12.2992C36.0776 11.6255 36.0271 10.5813 35.359 9.97498L27.1793 2.56445Z"
      fill="white"
    />
  </g>
</svg>

