<svg xmlns="http://www.w3.org/2000/svg" width="38" height="38" viewBox="0 0 38 38" fill="none">
  <path
    fill-rule="evenodd"
    clip-rule="evenodd"
    d="M33.1501 12.034H26.0316C25.6771 9.80393 25.1379 7.74962 24.4336 5.98925C23.9966 4.89538 23.5053 3.94745 22.9701 3.1542C27.5228 4.47182 31.2458 7.76212 33.1501 12.034ZM22.9701 33.8976C23.5053 33.1033 23.9966 32.156 24.4336 31.0618C25.1379 29.3011 25.6771 27.2469 26.0316 25.0167H33.1501C31.2458 29.2897 27.5228 32.5797 22.9701 33.8976ZM3.90428 25.0167H11.0231C11.3772 27.2469 11.9167 29.3012 12.6207 31.0619C13.0587 32.1561 13.5494 33.1033 14.0845 33.8976C9.53157 32.5797 5.80889 29.2897 3.90428 25.0167ZM14.0845 3.1542C13.5494 3.94745 13.0588 4.89538 12.6207 5.98925C11.9167 7.74962 11.3772 9.80393 11.0231 12.034H3.90428C5.80889 7.76212 9.53157 4.47182 14.0845 3.1542ZM18.5273 2.52539C17.238 2.52539 15.823 4.13751 14.743 6.83775C14.1371 8.35349 13.6636 10.1149 13.3374 12.034H23.7172C23.3907 10.1149 22.9179 8.35349 22.3116 6.83775C21.2316 4.13757 19.8167 2.52539 18.5273 2.52539ZM2.52734 18.5254C2.52734 17.0706 2.72378 15.6603 3.0894 14.3198H10.7302C10.5961 15.6826 10.5266 17.0918 10.5266 18.5254C10.5266 19.9589 10.5961 21.3682 10.7302 22.7313H3.08947C2.72384 21.3904 2.52734 19.9804 2.52734 18.5254ZM13.0264 22.7313C12.8852 21.3763 12.8121 19.9657 12.8121 18.5255C12.8121 17.0862 12.8852 15.6756 13.0264 14.3199H24.028C24.1694 15.6756 24.2423 17.0862 24.2423 18.5255C24.2423 19.9657 24.1694 21.3763 24.028 22.7313H13.0264ZM18.5273 34.5254C19.8167 34.5254 21.2316 32.9133 22.3116 30.2133C22.9179 28.6983 23.3907 26.9362 23.7172 25.0167H13.3374C13.6636 26.9362 14.1371 28.6983 14.743 30.2133C15.823 32.9133 17.238 34.5254 18.5273 34.5254ZM34.5273 18.5254C34.5273 19.9804 34.3309 21.3904 33.9652 22.7313H26.3245C26.4586 21.3681 26.5281 19.9589 26.5281 18.5254C26.5281 17.0918 26.4586 15.6826 26.3245 14.3198H33.9653C34.3308 15.6603 34.5273 17.0706 34.5273 18.5254Z"
    fill="white"
  />
</svg>

